<?xml version="1.0" standalone="no"?>
<!DOCTYPE svg PUBLIC "-//W3C//DTD SVG 20010904//EN"
 "http://www.w3.org/TR/2001/REC-SVG-20010904/DTD/svg10.dtd">
<svg version="1.0" xmlns="http://www.w3.org/2000/svg"
 width="971.000000pt" height="1280.000000pt" viewBox="0 0 971.000000 1280.000000"
 preserveAspectRatio="xMidYMid meet">
<metadata>
Created by potrace 1.15, written by Peter Selinger 2001-2017
</metadata>
<g transform="translate(0.000000,1280.000000) scale(0.100000,-0.100000)"
fill="#000000" stroke="none">
<path d="M1957 12786 c-76 -28 -187 -144 -240 -253 -12 -24 -24 -43 -27 -43
-3 0 -14 13 -23 30 -21 34 -60 48 -83 29 -28 -23 -46 -81 -34 -107 9 -21 16
-24 60 -20 28 1 50 2 50 2 0 -1 -7 -19 -16 -40 -9 -22 -21 -50 -26 -63 l-9
-24 -32 31 c-51 49 -86 38 -106 -35 -17 -61 9 -88 73 -73 20 4 36 5 36 1 0 -9
-31 -104 -36 -110 -2 -2 -17 8 -34 23 -36 30 -75 34 -89 8 -18 -33 -24 -92
-11 -107 15 -18 63 -20 92 -4 19 10 20 9 14 -17 -28 -115 -30 -118 -62 -83
-47 52 -87 44 -104 -23 -16 -57 -1 -88 40 -88 17 0 40 5 52 11 11 6 21 9 23 7
2 -2 -4 -34 -12 -71 l-15 -69 -32 31 c-52 50 -92 35 -110 -42 -13 -57 38 -87
96 -56 11 6 22 8 25 6 2 -3 -1 -32 -8 -66 l-11 -60 -38 30 c-58 47 -96 26
-102 -54 -4 -62 33 -80 105 -51 17 6 18 3 12 -47 l-6 -54 55 -65 c66 -77 60
-11 46 -570 -24 -916 -58 -2748 -63 -3310 l-2 -235 -70 -24 c-85 -29 -206 -32
-275 -7 -157 57 -262 201 -355 486 -44 136 -48 145 -88 188 -62 64 -148 35
-232 -79 -73 -100 -88 -150 -93 -324 -3 -130 0 -172 22 -303 31 -181 86 -400
157 -617 80 -249 82 -259 76 -360 -13 -205 -94 -437 -314 -900 -140 -294 -197
-464 -224 -662 -23 -176 8 -359 82 -474 115 -180 428 -351 790 -432 231 -52
337 -62 694 -61 442 0 647 27 878 118 275 108 433 247 542 479 58 122 68 234
40 454 -19 141 -88 357 -200 618 -89 208 -151 397 -166 511 -6 47 -9 140 -7
207 4 132 16 174 101 377 95 226 110 283 115 430 3 114 1 149 -17 225 -24 100
-61 188 -93 222 -14 15 -33 23 -55 23 -51 0 -118 -74 -252 -273 -124 -185
-171 -238 -246 -273 -72 -34 -136 -32 -211 6 -32 17 -71 41 -85 53 l-26 23
-12 1110 c-6 610 -16 1460 -21 1889 -16 1328 -15 1449 9 1525 36 113 107 204
194 245 51 24 50 13 2 265 -69 356 -84 489 -62 550 l12 34 65 1 c74 0 109 17
140 67 46 76 33 169 -33 245 -67 76 -145 99 -230 69z"/>
<path d="M4565 11338 c-11 -6 -31 -21 -45 -34 -38 -35 -104 -54 -190 -54 -42
0 -79 -2 -82 -5 -3 -3 -1 -27 3 -53 17 -94 25 -193 17 -198 -4 -3 -11 3 -15
13 -17 50 -60 66 -106 41 -34 -18 -46 -40 -47 -85 0 -34 5 -46 31 -67 49 -42
102 -30 122 27 19 51 37 -18 37 -139 0 -51 -3 -64 -15 -64 -9 0 -18 8 -22 18
-20 56 -73 68 -122 26 -56 -47 -36 -142 34 -160 42 -10 72 3 84 37 6 18 16 29
23 26 10 -3 12 -32 9 -118 -3 -111 -13 -153 -27 -113 -21 59 -73 70 -123 28
-26 -21 -31 -33 -31 -69 0 -36 5 -48 31 -69 50 -43 99 -31 124 29 8 18 9 18
13 -7 2 -15 -1 -75 -7 -135 l-10 -108 45 -43 c27 -25 59 -71 76 -109 l31 -65
-62 -1906 c-34 -1049 -63 -1920 -64 -1937 -2 -29 -4 -30 -67 -38 -297 -35
-412 -61 -547 -128 -255 -124 -339 -344 -264 -689 39 -177 96 -312 202 -476
74 -113 93 -168 86 -239 -10 -100 -55 -164 -248 -355 -295 -291 -473 -621
-534 -989 -23 -136 -17 -370 13 -481 65 -245 198 -458 392 -628 428 -375 1085
-531 1706 -406 902 182 1404 898 1179 1680 -93 320 -249 573 -527 854 -167
169 -198 220 -206 335 -5 92 17 152 110 293 133 200 207 391 224 575 13 142
-15 234 -78 265 -41 19 -69 2 -186 -116 -89 -90 -121 -115 -186 -148 -67 -33
-90 -39 -140 -38 -72 0 -155 32 -204 78 -54 51 -62 97 -62 372 l0 243 -47 3
-48 3 -7 1305 c-5 718 -7 1593 -5 1945 l2 640 23 50 c13 28 47 75 77 105 l55
55 -10 95 c-5 52 -12 114 -15 138 -4 33 -1 42 10 42 9 0 20 -11 25 -25 14 -36
52 -48 95 -31 40 17 55 42 55 91 0 54 -37 87 -93 83 -34 -2 -44 -8 -55 -30
-32 -67 -52 -17 -52 130 0 76 2 82 20 82 13 0 24 -10 30 -25 14 -37 51 -51 90
-35 41 17 60 46 60 93 0 53 -35 87 -89 87 -35 0 -43 -4 -56 -30 -9 -18 -23
-30 -35 -30 -17 0 -20 7 -20 48 0 129 25 192 50 127 14 -37 51 -51 90 -35 41
17 60 46 60 93 0 53 -35 87 -89 87 -35 0 -43 -4 -56 -30 -17 -32 -50 -43 -41
-12 3 9 8 64 12 121 l7 104 -61 -7 c-79 -9 -124 5 -198 60 -47 35 -67 44 -99
44 -22 0 -49 -6 -60 -12z"/>
<path d="M7892 9364 c-12 -8 -31 -33 -43 -55 -23 -46 -80 -86 -164 -114 -80
-28 -89 -47 -83 -192 4 -102 3 -113 -12 -108 -31 10 -41 -17 -33 -91 7 -57 12
-71 30 -79 12 -5 23 -21 25 -37 4 -24 1 -28 -19 -28 -32 0 -37 -20 -27 -98 8
-59 12 -67 32 -70 18 -3 22 -10 22 -38 0 -19 -4 -33 -9 -30 -4 3 -16 0 -25 -7
-14 -10 -15 -22 -9 -82 7 -57 12 -72 29 -79 19 -8 22 -21 28 -99 3 -50 6 -109
6 -132 0 -29 11 -64 35 -109 19 -37 35 -78 35 -91 0 -13 5 -25 10 -27 7 -2 7
-193 0 -583 -5 -319 -14 -857 -20 -1195 -5 -338 -13 -778 -16 -977 l-7 -363
-30 0 c-63 0 -284 -52 -405 -96 -91 -33 -155 -64 -225 -110 -263 -172 -382
-386 -394 -714 -7 -169 10 -256 102 -535 84 -253 96 -322 76 -441 -16 -91 -33
-127 -207 -431 -182 -318 -238 -435 -302 -633 -65 -201 -76 -270 -76 -470 0
-186 13 -262 70 -414 81 -211 154 -310 347 -472 94 -79 137 -104 331 -188 452
-198 1245 -229 1796 -71 107 30 360 150 465 220 96 63 201 158 248 223 52 71
142 238 170 319 60 165 84 443 53 608 -22 113 -71 290 -106 377 -34 83 -189
373 -316 590 -52 90 -112 196 -132 237 -34 70 -37 80 -36 165 1 107 28 226
116 516 73 241 85 326 69 461 -25 202 -99 384 -203 495 -71 75 -189 167 -285
221 -94 52 -291 117 -437 144 l-123 22 -7 391 c-3 215 -11 663 -16 996 -6 333
-15 852 -20 1155 -5 302 -6 552 -1 555 4 3 11 26 15 52 4 26 18 63 32 84 26
38 43 141 44 259 0 42 4 52 23 60 18 8 23 22 31 79 8 61 7 71 -9 82 -10 7 -22
11 -26 8 -5 -3 -9 11 -9 30 0 28 4 35 22 38 27 4 40 48 36 116 -3 40 -6 47
-25 50 -19 3 -23 10 -23 37 0 27 3 32 18 28 27 -7 39 15 46 88 7 70 -6 98 -39
86 -12 -5 -15 13 -17 121 l-3 127 -70 38 c-82 45 -120 78 -146 129 -27 54 -54
68 -124 68 -39 0 -69 -6 -83 -16z m-63 -320 c17 -22 21 -41 21 -109 l0 -83
-55 -1 -55 0 -2 52 c-4 101 0 131 23 150 29 23 44 22 68 -9z m336 6 c21 -23
30 -91 21 -154 l-7 -46 -55 1 -54 2 0 82 c0 68 4 87 21 109 24 31 49 33 74 6z
m-351 -322 c3 -29 6 -67 6 -83 0 -29 -2 -31 -37 -30 l-38 0 -3 83 -3 82 34 0
c34 0 34 -1 41 -52z m46 -27 c0 -44 -5 -83 -10 -86 -13 -8 -17 6 -25 93 -6 68
-5 72 14 72 19 0 21 -6 21 -79z m230 32 c0 -66 -11 -124 -21 -117 -10 6 -12
147 -2 157 16 16 23 4 23 -40z m88 -35 l-3 -83 -40 1 -40 0 3 65 c5 93 8 99
48 99 l35 0 -3 -82z m-388 -238 c0 -73 -2 -80 -20 -80 -18 0 -20 7 -20 80 0
73 2 80 20 80 18 0 20 -7 20 -80z m44 38 c14 -113 14 -118 -11 -118 -22 0 -23
3 -23 80 0 63 3 80 14 80 10 0 17 -15 20 -42z m26 15 c0 -16 3 -53 6 -83 3
-36 2 -50 -4 -40 -13 20 -22 150 -11 150 5 0 9 -12 9 -27z m200 -100 c-11 -17
-11 -17 -6 0 3 10 7 44 8 75 l2 57 3 -57 c2 -33 -1 -66 -7 -75z m60 47 c0 -78
-1 -80 -24 -80 -23 0 -24 2 -19 68 6 83 8 92 28 92 12 0 15 -15 15 -80z m56
64 c-3 -9 -6 -45 -6 -80 0 -57 -2 -64 -20 -64 -18 0 -20 7 -20 80 0 80 0 80
26 80 20 0 25 -4 20 -16z m-386 -310 c0 -76 -2 -85 -15 -74 -11 9 -15 33 -15
86 0 59 3 74 15 74 12 0 15 -16 15 -86z m71 16 c7 -73 -7 -110 -41 -110 -18 0
-20 7 -20 91 l0 90 28 -3 c26 -3 27 -6 33 -68z m259 -21 c0 -88 -1 -90 -22
-87 -32 4 -45 43 -40 116 4 61 4 62 33 62 l29 0 0 -91z m40 17 c0 -53 -4 -77
-15 -86 -13 -11 -15 -2 -15 74 0 70 3 86 15 86 12 0 15 -15 15 -74z"/>
</g>
</svg>
