<?xml version="1.0" standalone="no"?>
<!DOCTYPE svg PUBLIC "-//W3C//DTD SVG 20010904//EN"
 "http://www.w3.org/TR/2001/REC-SVG-20010904/DTD/svg10.dtd">
<svg version="1.0" xmlns="http://www.w3.org/2000/svg"
 width="905.000000pt" height="1280.000000pt" viewBox="0 0 905.000000 1280.000000"
 preserveAspectRatio="xMidYMid meet">
<metadata>
Created by potrace 1.15, written by Peter Selinger 2001-2017
</metadata>
<g transform="translate(0.000000,1280.000000) scale(0.100000,-0.100000)"
fill="#000000" stroke="none">
<path d="M7670 12434 c-619 -111 -1306 -235 -1527 -275 l-403 -72 0 -1760 c0
-1404 -3 -1758 -12 -1754 -101 45 -147 58 -234 68 -213 23 -416 -31 -623 -168
-107 -70 -263 -227 -314 -313 -132 -227 -104 -458 74 -592 103 -78 236 -114
378 -103 389 30 762 300 859 622 16 54 17 186 22 1807 l5 1750 1380 247 c759
136 1395 251 1413 254 l32 6 0 -1521 c0 -836 -2 -1520 -5 -1520 -3 0 -23 9
-43 19 -102 52 -331 66 -482 31 -109 -26 -285 -112 -388 -190 -146 -110 -250
-238 -310 -382 -23 -54 -26 -78 -27 -168 0 -99 2 -109 32 -171 82 -166 263
-258 488 -247 55 3 138 15 185 27 104 27 269 105 359 168 142 102 262 252 313
393 l23 65 3 1993 2 1992 -37 -1 c-21 -1 -544 -93 -1163 -205z"/>
<path d="M3105 12391 c-523 -191 -931 -890 -1072 -1836 -31 -209 -23 -651 18
-945 39 -282 106 -606 185 -886 5 -18 -42 -63 -303 -291 -712 -623 -1081
-1006 -1355 -1408 -264 -386 -408 -745 -453 -1130 -19 -163 -19 -284 0 -454
64 -572 309 -1076 724 -1492 401 -400 883 -646 1457 -745 332 -56 819 -43
1137 31 34 8 63 12 65 10 6 -6 280 -1107 303 -1220 26 -127 36 -367 20 -487
-24 -181 -104 -363 -218 -496 -171 -200 -468 -335 -842 -382 -230 -29 -547 44
-670 155 -34 31 -71 81 -71 97 0 2 35 4 78 5 271 7 546 155 663 357 96 167
101 384 11 569 -93 191 -260 331 -482 403 -77 25 -98 28 -230 28 -132 0 -153
-3 -230 -28 -110 -37 -189 -77 -272 -138 -243 -179 -380 -487 -338 -761 30
-200 121 -371 279 -527 212 -208 489 -344 833 -406 400 -72 951 38 1280 256
192 127 316 264 408 454 95 194 133 427 113 682 -11 126 -22 181 -192 914 -50
211 -100 430 -124 535 l-23 99 176 87 c461 229 775 518 950 874 112 228 151
397 151 661 1 167 -12 270 -51 421 -203 785 -933 1300 -1785 1258 -82 -4 -166
-8 -185 -9 -32 -1 -35 1 -43 39 -5 22 -65 276 -133 564 l-125 523 48 41 c187
160 420 411 580 624 397 528 622 1083 683 1686 17 166 8 439 -20 597 -105 604
-407 1305 -675 1574 -102 102 -180 130 -270 97z m367 -1090 c173 -82 259 -263
243 -506 -34 -482 -256 -933 -700 -1419 -157 -172 -497 -469 -515 -450 -8 10
-51 179 -74 294 -87 439 -64 816 75 1240 153 465 387 755 692 856 98 33 190
28 279 -15z m-935 -3843 c13 -57 53 -229 89 -383 35 -154 76 -329 90 -388 15
-59 25 -109 23 -110 -2 -2 -47 -20 -100 -40 -193 -75 -409 -220 -575 -384
-354 -353 -498 -773 -405 -1183 88 -386 370 -723 766 -915 149 -72 263 -109
308 -101 48 9 87 47 87 85 0 44 -35 75 -120 110 -159 65 -332 187 -422 296
-58 71 -112 176 -133 260 -35 139 -11 332 59 482 103 216 306 410 547 522 89
41 166 68 174 59 5 -5 50 -193 200 -843 41 -176 113 -486 160 -690 111 -477
155 -664 161 -696 6 -25 3 -27 -63 -43 -461 -108 -1019 -70 -1478 102 -552
206 -939 575 -1100 1046 -132 389 -85 862 131 1295 199 399 503 756 1014 1192
163 138 551 441 558 435 2 -3 15 -51 29 -108z m940 -1674 c238 -36 491 -157
671 -319 124 -112 249 -307 307 -478 151 -452 -48 -962 -495 -1266 -94 -64
-207 -128 -213 -121 -3 3 -30 113 -60 245 -31 132 -94 400 -140 595 -245 1027
-317 1338 -317 1357 0 12 13 14 78 8 42 -4 119 -13 169 -21z"/>
<path d="M6987 5803 c-4 -3 -7 -813 -7 -1799 l0 -1793 -32 18 c-63 37 -140 53
-278 58 -115 5 -148 2 -223 -16 -156 -37 -282 -100 -433 -217 -338 -261 -424
-627 -197 -834 115 -105 277 -152 453 -131 131 16 228 44 346 101 231 112 405
287 483 488 l26 67 3 1383 2 1382 23 0 c87 -1 282 -79 410 -163 277 -185 465
-474 523 -807 12 -72 15 -133 11 -250 -7 -254 -63 -455 -226 -822 -62 -139
-85 -200 -78 -207 6 -6 28 -11 48 -11 48 0 57 11 146 187 130 254 211 471 257
692 79 375 51 642 -101 946 -88 175 -184 300 -452 590 -292 316 -345 383 -413
520 -65 129 -97 243 -122 440 -9 66 -19 135 -22 153 l-5 32 -68 0 c-37 0 -71
-3 -74 -7z"/>
</g>
</svg>
